<mxfile host="app.diagrams.net" modified="2021-07-27T10:28:55.774Z" agent="5.0 (X11; Linux x86_64) AppleWebKit/537.36 (KHTML, like Gecko) Chrome/92.0.4515.107 Safari/537.36" etag="V5dtP7fBWEbuaNnEPNWS" version="14.7.6" type="github">
  <diagram id="XcnHwM6gKjOnn5lnN-pR" name="Page-1">
    <mxGraphModel dx="1422" dy="806" grid="1" gridSize="10" guides="1" tooltips="1" connect="1" arrows="1" fold="1" page="1" pageScale="1" pageWidth="3300" pageHeight="4681" math="0" shadow="0">
      <root>
        <mxCell id="0" />
        <mxCell id="1" parent="0" />
        <mxCell id="TXC58kotsLSpzHYyLu5X-6" style="edgeStyle=orthogonalEdgeStyle;rounded=0;orthogonalLoop=1;jettySize=auto;html=1;" edge="1" parent="1" source="TXC58kotsLSpzHYyLu5X-1">
          <mxGeometry relative="1" as="geometry">
            <mxPoint x="490" y="170" as="targetPoint" />
          </mxGeometry>
        </mxCell>
        <mxCell id="TXC58kotsLSpzHYyLu5X-1" value="Actor" style="shape=umlActor;verticalLabelPosition=bottom;verticalAlign=top;html=1;outlineConnect=0;" vertex="1" parent="1">
          <mxGeometry x="180" y="140" width="30" height="60" as="geometry" />
        </mxCell>
        <mxCell id="TXC58kotsLSpzHYyLu5X-2" value="getuser" style="swimlane;startSize=23;" vertex="1" parent="1">
          <mxGeometry x="490" y="90" width="200" height="200" as="geometry" />
        </mxCell>
        <mxCell id="TXC58kotsLSpzHYyLu5X-3" value="location" style="text;html=1;align=center;verticalAlign=middle;resizable=0;points=[];autosize=1;strokeColor=none;" vertex="1" parent="TXC58kotsLSpzHYyLu5X-2">
          <mxGeometry x="70" y="40" width="60" height="20" as="geometry" />
        </mxCell>
        <mxCell id="TXC58kotsLSpzHYyLu5X-8" style="edgeStyle=orthogonalEdgeStyle;rounded=0;orthogonalLoop=1;jettySize=auto;html=1;entryX=0.81;entryY=0;entryDx=0;entryDy=0;entryPerimeter=0;" edge="1" parent="1" source="TXC58kotsLSpzHYyLu5X-4" target="TXC58kotsLSpzHYyLu5X-7">
          <mxGeometry relative="1" as="geometry" />
        </mxCell>
        <mxCell id="TXC58kotsLSpzHYyLu5X-4" value="going" style="text;html=1;align=center;verticalAlign=middle;resizable=0;points=[];autosize=1;strokeColor=none;" vertex="1" parent="1">
          <mxGeometry x="560" y="170" width="40" height="20" as="geometry" />
        </mxCell>
        <mxCell id="TXC58kotsLSpzHYyLu5X-20" style="edgeStyle=orthogonalEdgeStyle;rounded=0;orthogonalLoop=1;jettySize=auto;html=1;" edge="1" parent="1" source="TXC58kotsLSpzHYyLu5X-7" target="TXC58kotsLSpzHYyLu5X-19">
          <mxGeometry relative="1" as="geometry">
            <Array as="points">
              <mxPoint x="620" y="815" />
            </Array>
          </mxGeometry>
        </mxCell>
        <mxCell id="TXC58kotsLSpzHYyLu5X-7" value="Vertical Container" style="swimlane;" vertex="1" parent="1">
          <mxGeometry x="560" y="540" width="200" height="200" as="geometry" />
        </mxCell>
        <mxCell id="TXC58kotsLSpzHYyLu5X-9" value="Vertical Container" style="swimlane;" vertex="1" parent="1">
          <mxGeometry x="840" y="50" width="760" height="400" as="geometry" />
        </mxCell>
        <mxCell id="TXC58kotsLSpzHYyLu5X-10" value="&lt;pre style=&quot;background-color: rgb(43 , 43 , 43) ; color: rgb(169 , 183 , 198) ; font-family: &amp;#34;fira code&amp;#34; , monospace&quot;&gt; &lt;span style=&quot;color: #9876aa ; font-style: italic&quot;&gt;local &lt;/span&gt;= { {&lt;span style=&quot;color: #6897bb&quot;&gt;1&lt;/span&gt;&lt;span style=&quot;color: #cc7832&quot;&gt;, &lt;/span&gt;&lt;span style=&quot;color: #6897bb&quot;&gt;2&lt;/span&gt;&lt;span style=&quot;color: #cc7832&quot;&gt;, &lt;/span&gt;&lt;span style=&quot;color: #6897bb&quot;&gt;2&lt;/span&gt;&lt;span style=&quot;color: #cc7832&quot;&gt;, &lt;/span&gt;&lt;span style=&quot;color: #6897bb&quot;&gt;4&lt;/span&gt;&lt;span style=&quot;color: #cc7832&quot;&gt;, &lt;/span&gt;&lt;span style=&quot;color: #6897bb&quot;&gt;3&lt;/span&gt;}&lt;span style=&quot;color: #cc7832&quot;&gt;, &lt;/span&gt;{&lt;span style=&quot;color: #6897bb&quot;&gt;2&lt;/span&gt;&lt;span style=&quot;color: #cc7832&quot;&gt;, &lt;/span&gt;&lt;span style=&quot;color: #6897bb&quot;&gt;1&lt;/span&gt;&lt;span style=&quot;color: #cc7832&quot;&gt;, &lt;/span&gt;&lt;span style=&quot;color: #6897bb&quot;&gt;4&lt;/span&gt;&lt;span style=&quot;color: #cc7832&quot;&gt;, &lt;/span&gt;&lt;span style=&quot;color: #6897bb&quot;&gt;2&lt;/span&gt;&lt;span style=&quot;color: #cc7832&quot;&gt;, &lt;/span&gt;&lt;span style=&quot;color: #6897bb&quot;&gt;3&lt;/span&gt;}&lt;span style=&quot;color: #cc7832&quot;&gt;, &lt;/span&gt;{&lt;span style=&quot;color: #6897bb&quot;&gt;3&lt;/span&gt;&lt;span style=&quot;color: #cc7832&quot;&gt;, &lt;/span&gt;&lt;span style=&quot;color: #6897bb&quot;&gt;5&lt;/span&gt;&lt;span style=&quot;color: #cc7832&quot;&gt;, &lt;/span&gt;&lt;span style=&quot;color: #6897bb&quot;&gt;1&lt;/span&gt;&lt;span style=&quot;color: #cc7832&quot;&gt;, &lt;/span&gt;&lt;span style=&quot;color: #6897bb&quot;&gt;3&lt;/span&gt;&lt;span style=&quot;color: #cc7832&quot;&gt;, &lt;/span&gt;&lt;span style=&quot;color: #6897bb&quot;&gt;2&lt;/span&gt;}&lt;span style=&quot;color: #cc7832&quot;&gt;, &lt;/span&gt;{&lt;span style=&quot;color: #6897bb&quot;&gt;4&lt;/span&gt;&lt;span style=&quot;color: #cc7832&quot;&gt;, &lt;/span&gt;&lt;span style=&quot;color: #6897bb&quot;&gt;3&lt;/span&gt;&lt;span style=&quot;color: #cc7832&quot;&gt;, &lt;/span&gt;&lt;span style=&quot;color: #6897bb&quot;&gt;3&lt;/span&gt;&lt;span style=&quot;color: #cc7832&quot;&gt;, &lt;/span&gt;&lt;span style=&quot;color: #6897bb&quot;&gt;1&lt;/span&gt;&lt;span style=&quot;color: #cc7832&quot;&gt;, &lt;/span&gt;&lt;span style=&quot;color: #6897bb&quot;&gt;2&lt;/span&gt;}&lt;span style=&quot;color: #cc7832&quot;&gt;, &lt;/span&gt;{&lt;span style=&quot;color: #6897bb&quot;&gt;3&lt;/span&gt;&lt;span style=&quot;color: #cc7832&quot;&gt;, &lt;/span&gt;&lt;span style=&quot;color: #6897bb&quot;&gt;3&lt;/span&gt;&lt;span style=&quot;color: #cc7832&quot;&gt;, &lt;/span&gt;&lt;span style=&quot;color: #6897bb&quot;&gt;2&lt;/span&gt;&lt;span style=&quot;color: #cc7832&quot;&gt;, &lt;/span&gt;&lt;span style=&quot;color: #6897bb&quot;&gt;2&lt;/span&gt;&lt;span style=&quot;color: #cc7832&quot;&gt;, &lt;/span&gt;&lt;span style=&quot;color: #6897bb&quot;&gt;1&lt;/span&gt;}}&lt;span style=&quot;color: rgb(204 , 120 , 50)&quot;&gt;;&lt;/span&gt;&lt;/pre&gt;" style="text;html=1;align=center;verticalAlign=middle;resizable=0;points=[];autosize=1;strokeColor=none;" vertex="1" parent="TXC58kotsLSpzHYyLu5X-9">
          <mxGeometry x="30" y="40" width="710" height="40" as="geometry" />
        </mxCell>
        <mxCell id="TXC58kotsLSpzHYyLu5X-12" value="&lt;pre style=&quot;background-color: rgb(43 , 43 , 43) ; color: rgb(169 , 183 , 198) ; font-family: &amp;#34;fira code&amp;#34; , monospace ; font-size: 17px&quot;&gt;&lt;span style=&quot;color: #9876aa ; font-style: italic&quot;&gt;paye &lt;/span&gt;= {&lt;span style=&quot;color: #6897bb&quot;&gt;5000&lt;/span&gt;&lt;span style=&quot;color: #cc7832&quot;&gt;, &lt;/span&gt;&lt;span style=&quot;color: #6897bb&quot;&gt;10000&lt;/span&gt;&lt;span style=&quot;color: #cc7832&quot;&gt;, &lt;/span&gt;&lt;span style=&quot;color: #6897bb&quot;&gt;4000&lt;/span&gt;}&lt;span style=&quot;color: #cc7832&quot;&gt;;&lt;/span&gt;&lt;/pre&gt;" style="text;html=1;align=center;verticalAlign=middle;resizable=0;points=[];autosize=1;strokeColor=none;" vertex="1" parent="TXC58kotsLSpzHYyLu5X-9">
          <mxGeometry x="30" y="65" width="290" height="50" as="geometry" />
        </mxCell>
        <mxCell id="TXC58kotsLSpzHYyLu5X-13" value="&lt;pre style=&quot;background-color: rgb(43 , 43 , 43) ; color: rgb(169 , 183 , 198) ; font-family: &amp;#34;fira code&amp;#34; , monospace ; font-size: 19px&quot;&gt; &lt;span style=&quot;color: #9876aa ; font-style: italic&quot;&gt;barog &lt;/span&gt;= {&lt;span style=&quot;color: #6897bb&quot;&gt;1.4&lt;/span&gt;&lt;span style=&quot;color: #cc7832&quot;&gt;, &lt;/span&gt;&lt;span style=&quot;color: #6897bb&quot;&gt;3&lt;/span&gt;&lt;span style=&quot;color: #cc7832&quot;&gt;, &lt;/span&gt;&lt;span style=&quot;color: #6897bb&quot;&gt;1.5&lt;/span&gt;}&lt;span style=&quot;color: #cc7832&quot;&gt;;&lt;/span&gt;&lt;/pre&gt;" style="text;html=1;align=center;verticalAlign=middle;resizable=0;points=[];autosize=1;strokeColor=none;" vertex="1" parent="TXC58kotsLSpzHYyLu5X-9">
          <mxGeometry x="30" y="100" width="280" height="60" as="geometry" />
        </mxCell>
        <mxCell id="TXC58kotsLSpzHYyLu5X-14" value="&lt;pre style=&quot;background-color: rgb(43 , 43 , 43) ; color: rgb(169 , 183 , 198) ; font-family: &amp;#34;fira code&amp;#34; , monospace ; font-size: 19px&quot;&gt;&lt;span style=&quot;color: #9876aa ; font-style: italic&quot;&gt;og &lt;/span&gt;= {&lt;span style=&quot;color: #6897bb&quot;&gt;1.2&lt;/span&gt;&lt;span style=&quot;color: #cc7832&quot;&gt;, &lt;/span&gt;&lt;span style=&quot;color: #6897bb&quot;&gt;2&lt;/span&gt;&lt;span style=&quot;color: #cc7832&quot;&gt;, &lt;/span&gt;&lt;span style=&quot;color: #6897bb&quot;&gt;2&lt;/span&gt;}&lt;span style=&quot;color: #cc7832&quot;&gt;;&lt;/span&gt;&lt;/pre&gt;" style="text;html=1;align=center;verticalAlign=middle;resizable=0;points=[];autosize=1;strokeColor=none;" vertex="1" parent="TXC58kotsLSpzHYyLu5X-9">
          <mxGeometry x="30" y="150" width="210" height="60" as="geometry" />
        </mxCell>
        <mxCell id="TXC58kotsLSpzHYyLu5X-15" value="&lt;pre style=&quot;background-color: #2b2b2b ; color: #a9b7c6 ; font-family: &amp;#34;fira code&amp;#34; , monospace ; font-size: 16.5pt&quot;&gt;&lt;span style=&quot;color: #9876aa ; font-style: italic&quot;&gt;baran &lt;/span&gt;= {&lt;span style=&quot;color: #6897bb&quot;&gt;1.2&lt;/span&gt;&lt;span style=&quot;color: #cc7832&quot;&gt;, &lt;/span&gt;&lt;span style=&quot;color: #6897bb&quot;&gt;2&lt;/span&gt;&lt;span style=&quot;color: #cc7832&quot;&gt;, &lt;/span&gt;&lt;span style=&quot;color: #6897bb&quot;&gt;0.8&lt;/span&gt;}&lt;/pre&gt;" style="text;html=1;align=center;verticalAlign=middle;resizable=0;points=[];autosize=1;strokeColor=none;" vertex="1" parent="TXC58kotsLSpzHYyLu5X-9">
          <mxGeometry x="30" y="200" width="290" height="60" as="geometry" />
        </mxCell>
        <mxCell id="TXC58kotsLSpzHYyLu5X-11" style="edgeStyle=orthogonalEdgeStyle;rounded=0;orthogonalLoop=1;jettySize=auto;html=1;entryX=0;entryY=0.25;entryDx=0;entryDy=0;" edge="1" parent="1" source="TXC58kotsLSpzHYyLu5X-3" target="TXC58kotsLSpzHYyLu5X-9">
          <mxGeometry relative="1" as="geometry" />
        </mxCell>
        <mxCell id="TXC58kotsLSpzHYyLu5X-18" style="edgeStyle=orthogonalEdgeStyle;rounded=0;orthogonalLoop=1;jettySize=auto;html=1;entryX=0.25;entryY=1;entryDx=0;entryDy=0;" edge="1" parent="1" target="TXC58kotsLSpzHYyLu5X-9">
          <mxGeometry relative="1" as="geometry">
            <mxPoint x="790" y="640" as="sourcePoint" />
          </mxGeometry>
        </mxCell>
        <mxCell id="TXC58kotsLSpzHYyLu5X-16" value="&lt;font style=&quot;font-size: 24px&quot;&gt;x=x*rate&lt;/font&gt;" style="text;html=1;align=center;verticalAlign=middle;resizable=0;points=[];autosize=1;strokeColor=none;" vertex="1" parent="1">
          <mxGeometry x="610" y="600" width="100" height="20" as="geometry" />
        </mxCell>
        <mxCell id="TXC58kotsLSpzHYyLu5X-17" value="&lt;font style=&quot;font-size: 17px&quot;&gt;x=x*feel&lt;/font&gt;" style="whiteSpace=wrap;html=1;" vertex="1" parent="1">
          <mxGeometry x="620" y="635" width="70" height="30" as="geometry" />
        </mxCell>
        <mxCell id="TXC58kotsLSpzHYyLu5X-19" value="&lt;font style=&quot;font-size: 21px&quot;&gt;print payment&lt;/font&gt;" style="shape=document;whiteSpace=wrap;html=1;boundedLbl=1;" vertex="1" parent="1">
          <mxGeometry x="960" y="700" width="340" height="230" as="geometry" />
        </mxCell>
      </root>
    </mxGraphModel>
  </diagram>
</mxfile>
